<?xml version="1.0" encoding="utf-8"?>
<!-- Generator: Adobe Illustrator 25.4.8, SVG Export Plug-In . SVG Version: 6.00 Build 0)  -->
<svg version="1.1" id="Layer_1" xmlns="http://www.w3.org/2000/svg" xmlns:xlink="http://www.w3.org/1999/xlink" x="0px" y="0px"
	 viewBox="0 0 550 550" style="enable-background:new 0 0 550 550;" xml:space="preserve">
<style type="text/css">
	.st0{fill:#231F20;}
	.st1{font-family:'RobotoMono-Regular';}
	.st2{font-size:235.8517px;}
	.st3{fill:none;}
	.st4{font-family:'MyriadPro-Regular';}
	.st5{font-size:72px;}
</style>
<g>
	<path class="st0" d="M17.9,156.6L135.2,138l4,25.1l-46.5,7.4l28.1,177l46.5-7.4l4,24.9L53.9,383.6l-4-24.9l45.4-7.2l-28.1-177
		l-45.4,7.2L17.9,156.6z"/>
</g>
<text transform="matrix(1.128 0.1899 -0.166 0.9861 357.734 359.0386)" class="st0 st1 st2">K</text>
<line class="st3" x1="320.4" y1="298.6" x2="309.7" y2="285.9"/>
<g>
	<g>
		<path class="st0" d="M251.7,250.9l7.3-22.7c-2.9-1.4-5.5-3-8.1-4.8c-4-2.8-7.3-6.3-9.9-10.5c-1.1-1.8-2.1-3.9-2.7-6.1l-9.6,28.3
			L212,284.6l-0.4,1.1l-26.7,78.9l30.2-0.6l12.8-39.4l4.8-14.7l13-0.3c-1.1-1.6-1.9-3.4-2.7-5.3c-1.5-3.6-1.1-11.6-1.3-17.6l-1.5,0
			l1.3-4L251.7,250.9z M334,289.6L323.9,264c-2.6-3.4-5.5-6.3-8.7-9c-5.4-4.6-11.5-8.4-18-11.5c-4-1.9-8-3.6-11.8-5.1l12.3,32.4
			c3.4,2.5,6.3,5.5,8.6,9c2.4,3.7,3.9,8.1,4.1,13.4c0,0.4,0.1,0.7,0.1,1.1c0.1,5.3-0.8,9.9-2.6,13.9c0,0.1-0.1,0.2-0.2,0.4l4.3-0.1
			l8.3,21.7l12.1,31.6l30-0.6L334,289.6z M280.9,155.2l-25.3,0.5l-5.5,16.3c2.8-1.9,5.9-3.3,9.3-4.3c4.3-1.3,8.6-1.9,13.1-2
			c4.7-0.1,9.2,0.5,13.3,1.7L280.9,155.2z"/>
	</g>
	<g>
		<path class="st0" d="M328.7,271.3c-1.5-2.6-3.1-5-4.8-7.2c-2.6-3.4-5.5-6.3-8.7-9c-5.4-4.6-11.5-8.4-18-11.5
			c-4-1.9-8-3.6-11.8-5.1c-2.6-1-5.1-2-7.6-2.8c-4.3-1.5-8.9-3.2-13.7-5c-1.7-0.7-3.4-1.4-5-2.2c-2.9-1.4-5.5-3-8.1-4.8
			c-4-2.8-7.3-6.3-9.9-10.5c-1.1-1.8-2.1-3.9-2.7-6.1c-0.9-2.8-1.3-5.9-1.3-9.3c-0.1-5.4,0.8-10.2,2.9-14.2c2-4,4.7-7.2,8-9.9
			c0.7-0.6,1.4-1.1,2.2-1.5c2.8-1.9,5.9-3.3,9.3-4.3c4.3-1.3,8.6-1.9,13.1-2c4.7-0.1,9.2,0.5,13.3,1.7c0.7,0.2,1.5,0.4,2.2,0.7
			c4.8,1.6,9,4.1,12.6,7.3c3.7,3.3,6.7,7.3,9.1,12.1c2.4,4.8,4,10.2,4.8,16.4l23.3-0.3c-0.4-9.5-2.6-17.9-6.5-25.2
			c-3.9-7.4-9-13.6-15.1-18.6c-6.1-5.1-13.1-8.9-20.7-11.6c-7.7-2.6-15.5-3.9-23.5-3.8c-7.2,0.1-14.3,1.3-21.4,3.6
			c-7.1,2.3-13.4,5.7-19,10.1c-5.6,4.5-10.1,10.1-13.5,16.7c-3.5,6.7-5.1,14.5-4.9,23.4c0.1,5.9,1,11.3,2.6,16.2
			c1.6,4.8,3.8,9.3,6.6,13.3c1.9,2.7,4,5.3,6.3,7.6c1.1,1.1,2.2,2.1,3.4,3.2c3.7,3.1,7.6,6,11.8,8.5c2.5,1.5,5.2,2.9,7.8,4.1
			c1.8,0.9,3.6,1.7,5.4,2.4c4.5,1.9,9.1,3.6,13.5,5.1c4.1,1.3,8.4,2.8,13,4.6c4.6,1.7,8.9,4,12.8,6.7c0.4,0.3,0.8,0.6,1.2,0.9
			c3.4,2.5,6.3,5.5,8.6,9c2.4,3.7,3.9,8.1,4.1,13.4c0,0.4,0.1,0.7,0.1,1.1c0.1,5.3-0.8,9.9-2.6,13.9c0,0.1-0.1,0.2-0.2,0.4
			c-1.8,3.9-4.3,7.1-7.3,9.8c-3.2,2.8-6.9,4.9-11,6.3c-4.1,1.4-8.4,2.1-12.7,2.2c-5.4,0.1-10.3-0.8-14.6-2.6
			c-4.3-1.8-8.1-4.4-11.3-7.7c-1.9-2-3.6-4.2-5-6.7c-1.1-1.6-1.9-3.4-2.7-5.3c-1.5-3.6-1.1-11.6-1.3-17.6c0-1.5-0.1-2.9-0.2-4
			c0-0.2,0-0.4,0-0.5l-29.4,2.3l-0.5,0c0,0.3,0,0.7,0.1,1.1c0.7,9,6.2,21,9.6,28c1.9,4,4.1,7.6,6.7,10.9c2.2,2.8,4.5,5.4,7.1,7.7
			c5.7,5.1,12.2,9.1,19.4,11.9c7.3,2.7,14.8,4.1,22.6,4c7.1-0.1,14-1.4,21-3.8c6.9-2.5,13.1-6.1,18.5-10.8c1.3-1.1,2.5-2.3,3.7-3.6
			c3.8-4,6.9-8.5,9.4-13.6c3.3-6.8,4.8-14.4,4.6-23c0-1.3-0.1-2.6-0.2-3.9C333.4,282.7,331.7,276.6,328.7,271.3z"/>
	</g>
	<circle class="st0" cx="296.1" cy="296" r="6.1"/>
	<circle class="st0" cx="265.5" cy="295.6" r="6.1"/>
</g>
<text transform="matrix(1 0 0 1 180.4074 458.4174)" class="st0 st4 st5">MEDIA</text>
</svg>
